<mxfile host="app.diagrams.net" modified="2022-02-17T04:45:26.550Z" agent="5.0 (Windows NT 10.0; Win64; x64) AppleWebKit/537.36 (KHTML, like Gecko) Chrome/98.0.4758.102 Safari/537.36" etag="Cawp184HVeFK7YyyQM_z" version="16.5.6" type="github">
  <diagram id="D5AAtSXQsttPuj6VKfQw" name="Page-1">
    <mxGraphModel dx="1422" dy="762" grid="1" gridSize="10" guides="1" tooltips="1" connect="1" arrows="1" fold="1" page="1" pageScale="1" pageWidth="850" pageHeight="1400" math="0" shadow="0">
      <root>
        <mxCell id="0" />
        <mxCell id="1" parent="0" />
        <mxCell id="kqk-4xn9vtSDWn9mELsq-1" value="&lt;font style=&quot;font-size: 18px&quot;&gt;Sections&lt;br&gt;&lt;/font&gt;" style="rounded=0;whiteSpace=wrap;html=1;" vertex="1" parent="1">
          <mxGeometry x="190" y="420" width="120" height="60" as="geometry" />
        </mxCell>
        <mxCell id="kqk-4xn9vtSDWn9mELsq-55" value="" style="edgeStyle=orthogonalEdgeStyle;rounded=0;orthogonalLoop=1;jettySize=auto;html=1;fontSize=18;" edge="1" parent="1" source="kqk-4xn9vtSDWn9mELsq-3" target="kqk-4xn9vtSDWn9mELsq-54">
          <mxGeometry relative="1" as="geometry" />
        </mxCell>
        <mxCell id="kqk-4xn9vtSDWn9mELsq-3" value="&lt;font style=&quot;font-size: 18px&quot;&gt;Students&lt;/font&gt;" style="rounded=0;whiteSpace=wrap;html=1;" vertex="1" parent="1">
          <mxGeometry x="525" y="420" width="120" height="60" as="geometry" />
        </mxCell>
        <mxCell id="kqk-4xn9vtSDWn9mELsq-4" value="" style="endArrow=none;html=1;rounded=0;fontSize=18;entryX=0.5;entryY=1;entryDx=0;entryDy=0;exitX=0.5;exitY=0;exitDx=0;exitDy=0;" edge="1" parent="1" source="kqk-4xn9vtSDWn9mELsq-29" target="kqk-4xn9vtSDWn9mELsq-3">
          <mxGeometry width="50" height="50" relative="1" as="geometry">
            <mxPoint x="360" y="530" as="sourcePoint" />
            <mxPoint x="530" y="270" as="targetPoint" />
          </mxGeometry>
        </mxCell>
        <mxCell id="kqk-4xn9vtSDWn9mELsq-37" value="" style="edgeStyle=orthogonalEdgeStyle;rounded=0;orthogonalLoop=1;jettySize=auto;html=1;fontSize=18;" edge="1" parent="1" source="kqk-4xn9vtSDWn9mELsq-6" target="kqk-4xn9vtSDWn9mELsq-34">
          <mxGeometry relative="1" as="geometry" />
        </mxCell>
        <mxCell id="kqk-4xn9vtSDWn9mELsq-6" value="&lt;font style=&quot;font-size: 18px&quot;&gt;Instructors&lt;/font&gt;" style="rounded=0;whiteSpace=wrap;html=1;" vertex="1" parent="1">
          <mxGeometry x="350" y="40" width="120" height="60" as="geometry" />
        </mxCell>
        <mxCell id="kqk-4xn9vtSDWn9mELsq-7" value="" style="endArrow=classic;html=1;rounded=0;entryX=0.5;entryY=1;entryDx=0;entryDy=0;exitX=0.5;exitY=0;exitDx=0;exitDy=0;" edge="1" parent="1" source="kqk-4xn9vtSDWn9mELsq-29" target="kqk-4xn9vtSDWn9mELsq-1">
          <mxGeometry width="50" height="50" relative="1" as="geometry">
            <mxPoint x="360" y="530" as="sourcePoint" />
            <mxPoint x="560" y="390" as="targetPoint" />
          </mxGeometry>
        </mxCell>
        <mxCell id="kqk-4xn9vtSDWn9mELsq-47" value="" style="edgeStyle=orthogonalEdgeStyle;rounded=0;orthogonalLoop=1;jettySize=auto;html=1;fontSize=18;" edge="1" parent="1" source="kqk-4xn9vtSDWn9mELsq-10" target="kqk-4xn9vtSDWn9mELsq-46">
          <mxGeometry relative="1" as="geometry" />
        </mxCell>
        <mxCell id="kqk-4xn9vtSDWn9mELsq-10" value="&lt;font style=&quot;font-size: 18px&quot;&gt;Courses&lt;/font&gt;" style="rounded=0;whiteSpace=wrap;html=1;" vertex="1" parent="1">
          <mxGeometry x="350" y="220" width="120" height="60" as="geometry" />
        </mxCell>
        <mxCell id="kqk-4xn9vtSDWn9mELsq-18" value="" style="endArrow=none;startArrow=classic;html=1;rounded=0;entryX=0.5;entryY=1;entryDx=0;entryDy=0;exitX=0.5;exitY=0;exitDx=0;exitDy=0;" edge="1" parent="1" source="kqk-4xn9vtSDWn9mELsq-3" target="kqk-4xn9vtSDWn9mELsq-30">
          <mxGeometry width="50" height="50" relative="1" as="geometry">
            <mxPoint x="700" y="389.9999999999999" as="sourcePoint" />
            <mxPoint x="500" y="380" as="targetPoint" />
          </mxGeometry>
        </mxCell>
        <mxCell id="kqk-4xn9vtSDWn9mELsq-21" value="Teaches" style="rhombus;whiteSpace=wrap;html=1;fontSize=18;" vertex="1" parent="1">
          <mxGeometry x="350" y="130" width="120" height="60" as="geometry" />
        </mxCell>
        <mxCell id="kqk-4xn9vtSDWn9mELsq-24" value="" style="endArrow=none;html=1;rounded=0;entryX=0.5;entryY=1;entryDx=0;entryDy=0;exitX=0.5;exitY=0;exitDx=0;exitDy=0;" edge="1" parent="1" source="kqk-4xn9vtSDWn9mELsq-21" target="kqk-4xn9vtSDWn9mELsq-6">
          <mxGeometry width="50" height="50" relative="1" as="geometry">
            <mxPoint x="500" y="450" as="sourcePoint" />
            <mxPoint x="550" y="400" as="targetPoint" />
          </mxGeometry>
        </mxCell>
        <mxCell id="kqk-4xn9vtSDWn9mELsq-25" value="" style="endArrow=none;html=1;rounded=0;entryX=0.5;entryY=1;entryDx=0;entryDy=0;exitX=0.5;exitY=0;exitDx=0;exitDy=0;" edge="1" parent="1" source="kqk-4xn9vtSDWn9mELsq-10" target="kqk-4xn9vtSDWn9mELsq-21">
          <mxGeometry width="50" height="50" relative="1" as="geometry">
            <mxPoint x="500" y="450" as="sourcePoint" />
            <mxPoint x="550" y="400" as="targetPoint" />
          </mxGeometry>
        </mxCell>
        <mxCell id="kqk-4xn9vtSDWn9mELsq-26" value="" style="endArrow=none;html=1;rounded=0;entryX=0.5;entryY=1;entryDx=0;entryDy=0;exitX=0.5;exitY=0;exitDx=0;exitDy=0;startArrow=none;" edge="1" parent="1" source="kqk-4xn9vtSDWn9mELsq-27" target="kqk-4xn9vtSDWn9mELsq-10">
          <mxGeometry width="50" height="50" relative="1" as="geometry">
            <mxPoint x="500" y="450" as="sourcePoint" />
            <mxPoint x="550" y="400" as="targetPoint" />
          </mxGeometry>
        </mxCell>
        <mxCell id="kqk-4xn9vtSDWn9mELsq-27" value="Section of" style="rhombus;whiteSpace=wrap;html=1;fontSize=18;" vertex="1" parent="1">
          <mxGeometry x="260" y="320" width="140" height="60" as="geometry" />
        </mxCell>
        <mxCell id="kqk-4xn9vtSDWn9mELsq-28" value="" style="endArrow=none;html=1;rounded=0;entryX=0.5;entryY=1;entryDx=0;entryDy=0;exitX=0.5;exitY=0;exitDx=0;exitDy=0;" edge="1" parent="1" source="kqk-4xn9vtSDWn9mELsq-1" target="kqk-4xn9vtSDWn9mELsq-27">
          <mxGeometry width="50" height="50" relative="1" as="geometry">
            <mxPoint x="410" y="400" as="sourcePoint" />
            <mxPoint x="410" y="280" as="targetPoint" />
          </mxGeometry>
        </mxCell>
        <mxCell id="kqk-4xn9vtSDWn9mELsq-29" value="Enrolls in" style="rhombus;whiteSpace=wrap;html=1;fontSize=18;" vertex="1" parent="1">
          <mxGeometry x="360" y="560" width="120" height="60" as="geometry" />
        </mxCell>
        <mxCell id="kqk-4xn9vtSDWn9mELsq-30" value="Student of" style="rhombus;whiteSpace=wrap;html=1;fontSize=18;" vertex="1" parent="1">
          <mxGeometry x="430" y="320" width="140" height="60" as="geometry" />
        </mxCell>
        <mxCell id="kqk-4xn9vtSDWn9mELsq-31" value="" style="endArrow=none;html=1;rounded=0;entryX=0.5;entryY=1;entryDx=0;entryDy=0;exitX=0.5;exitY=0;exitDx=0;exitDy=0;" edge="1" parent="1" source="kqk-4xn9vtSDWn9mELsq-30" target="kqk-4xn9vtSDWn9mELsq-10">
          <mxGeometry width="50" height="50" relative="1" as="geometry">
            <mxPoint x="500" y="450" as="sourcePoint" />
            <mxPoint x="550" y="400" as="targetPoint" />
          </mxGeometry>
        </mxCell>
        <mxCell id="kqk-4xn9vtSDWn9mELsq-33" value="&lt;font style=&quot;font-size: 18px&quot;&gt;Department&lt;/font&gt;" style="ellipse;whiteSpace=wrap;html=1;" vertex="1" parent="1">
          <mxGeometry x="500" y="40" width="120" height="60" as="geometry" />
        </mxCell>
        <mxCell id="kqk-4xn9vtSDWn9mELsq-34" value="&lt;u style=&quot;font-size: 18px&quot;&gt;Name&lt;/u&gt;" style="ellipse;whiteSpace=wrap;html=1;" vertex="1" parent="1">
          <mxGeometry x="190" y="40" width="120" height="60" as="geometry" />
        </mxCell>
        <mxCell id="kqk-4xn9vtSDWn9mELsq-35" value="" style="endArrow=none;html=1;rounded=0;fontSize=18;entryX=0;entryY=0.5;entryDx=0;entryDy=0;exitX=1;exitY=0.5;exitDx=0;exitDy=0;" edge="1" parent="1" source="kqk-4xn9vtSDWn9mELsq-6" target="kqk-4xn9vtSDWn9mELsq-33">
          <mxGeometry width="50" height="50" relative="1" as="geometry">
            <mxPoint x="500" y="440" as="sourcePoint" />
            <mxPoint x="550" y="390" as="targetPoint" />
          </mxGeometry>
        </mxCell>
        <mxCell id="kqk-4xn9vtSDWn9mELsq-38" value="&lt;font style=&quot;font-size: 18px&quot;&gt;Department&lt;/font&gt;" style="ellipse;whiteSpace=wrap;html=1;" vertex="1" parent="1">
          <mxGeometry x="520" y="180" width="120" height="60" as="geometry" />
        </mxCell>
        <mxCell id="kqk-4xn9vtSDWn9mELsq-42" value="&lt;font style=&quot;font-size: 18px&quot;&gt;Credits&lt;/font&gt;" style="ellipse;whiteSpace=wrap;html=1;" vertex="1" parent="1">
          <mxGeometry x="520" y="260" width="120" height="60" as="geometry" />
        </mxCell>
        <mxCell id="kqk-4xn9vtSDWn9mELsq-43" value="" style="endArrow=classic;html=1;rounded=0;fontSize=18;entryX=0;entryY=0.5;entryDx=0;entryDy=0;exitX=1;exitY=0.5;exitDx=0;exitDy=0;" edge="1" parent="1" source="kqk-4xn9vtSDWn9mELsq-10" target="kqk-4xn9vtSDWn9mELsq-38">
          <mxGeometry width="50" height="50" relative="1" as="geometry">
            <mxPoint x="500" y="440" as="sourcePoint" />
            <mxPoint x="550" y="390" as="targetPoint" />
          </mxGeometry>
        </mxCell>
        <mxCell id="kqk-4xn9vtSDWn9mELsq-44" value="" style="endArrow=none;html=1;rounded=0;fontSize=18;exitX=1;exitY=0.5;exitDx=0;exitDy=0;entryX=0;entryY=0.5;entryDx=0;entryDy=0;" edge="1" parent="1" source="kqk-4xn9vtSDWn9mELsq-10" target="kqk-4xn9vtSDWn9mELsq-42">
          <mxGeometry width="50" height="50" relative="1" as="geometry">
            <mxPoint x="500" y="440" as="sourcePoint" />
            <mxPoint x="550" y="390" as="targetPoint" />
          </mxGeometry>
        </mxCell>
        <mxCell id="kqk-4xn9vtSDWn9mELsq-46" value="&lt;u style=&quot;font-size: 18px&quot;&gt;Course Title&lt;/u&gt;" style="ellipse;whiteSpace=wrap;html=1;" vertex="1" parent="1">
          <mxGeometry x="190" y="220" width="120" height="60" as="geometry" />
        </mxCell>
        <mxCell id="kqk-4xn9vtSDWn9mELsq-49" value="&lt;u style=&quot;font-size: 18px&quot;&gt;SectionID&lt;/u&gt;" style="ellipse;whiteSpace=wrap;html=1;" vertex="1" parent="1">
          <mxGeometry x="30" y="390" width="120" height="60" as="geometry" />
        </mxCell>
        <mxCell id="kqk-4xn9vtSDWn9mELsq-51" value="&lt;span style=&quot;font-size: 18px&quot;&gt;Schedule&lt;/span&gt;" style="ellipse;whiteSpace=wrap;html=1;" vertex="1" parent="1">
          <mxGeometry x="30" y="460" width="120" height="60" as="geometry" />
        </mxCell>
        <mxCell id="kqk-4xn9vtSDWn9mELsq-52" value="" style="endArrow=none;html=1;rounded=0;fontSize=18;exitX=1;exitY=0.5;exitDx=0;exitDy=0;entryX=0;entryY=0.5;entryDx=0;entryDy=0;" edge="1" parent="1" source="kqk-4xn9vtSDWn9mELsq-51" target="kqk-4xn9vtSDWn9mELsq-1">
          <mxGeometry width="50" height="50" relative="1" as="geometry">
            <mxPoint x="400" y="330" as="sourcePoint" />
            <mxPoint x="450" y="280" as="targetPoint" />
          </mxGeometry>
        </mxCell>
        <mxCell id="kqk-4xn9vtSDWn9mELsq-53" value="" style="endArrow=classic;html=1;rounded=0;fontSize=18;entryX=1;entryY=0.5;entryDx=0;entryDy=0;exitX=0;exitY=0.5;exitDx=0;exitDy=0;" edge="1" parent="1" source="kqk-4xn9vtSDWn9mELsq-1" target="kqk-4xn9vtSDWn9mELsq-49">
          <mxGeometry width="50" height="50" relative="1" as="geometry">
            <mxPoint x="400" y="330" as="sourcePoint" />
            <mxPoint x="450" y="280" as="targetPoint" />
          </mxGeometry>
        </mxCell>
        <mxCell id="kqk-4xn9vtSDWn9mELsq-54" value="&lt;u style=&quot;font-size: 18px&quot;&gt;Name&lt;/u&gt;" style="ellipse;whiteSpace=wrap;html=1;" vertex="1" parent="1">
          <mxGeometry x="670" y="420" width="120" height="60" as="geometry" />
        </mxCell>
        <mxCell id="kqk-4xn9vtSDWn9mELsq-56" value="&lt;font style=&quot;font-size: 18px&quot;&gt;Major&lt;/font&gt;" style="ellipse;whiteSpace=wrap;html=1;" vertex="1" parent="1">
          <mxGeometry x="525" y="520" width="120" height="60" as="geometry" />
        </mxCell>
        <mxCell id="kqk-4xn9vtSDWn9mELsq-57" value="" style="endArrow=none;html=1;rounded=0;fontSize=18;entryX=0.5;entryY=1;entryDx=0;entryDy=0;exitX=0.5;exitY=0;exitDx=0;exitDy=0;" edge="1" parent="1" source="kqk-4xn9vtSDWn9mELsq-56" target="kqk-4xn9vtSDWn9mELsq-3">
          <mxGeometry width="50" height="50" relative="1" as="geometry">
            <mxPoint x="400" y="430" as="sourcePoint" />
            <mxPoint x="450" y="380" as="targetPoint" />
          </mxGeometry>
        </mxCell>
        <mxCell id="kqk-4xn9vtSDWn9mELsq-59" value="&lt;font style=&quot;font-size: 18px&quot;&gt;GPA&lt;/font&gt;" style="ellipse;whiteSpace=wrap;html=1;" vertex="1" parent="1">
          <mxGeometry x="640" y="490" width="120" height="60" as="geometry" />
        </mxCell>
        <mxCell id="kqk-4xn9vtSDWn9mELsq-61" value="" style="endArrow=none;html=1;rounded=0;fontSize=18;entryX=0.5;entryY=1;entryDx=0;entryDy=0;exitX=0;exitY=0;exitDx=0;exitDy=0;" edge="1" parent="1" source="kqk-4xn9vtSDWn9mELsq-59" target="kqk-4xn9vtSDWn9mELsq-3">
          <mxGeometry width="50" height="50" relative="1" as="geometry">
            <mxPoint x="595" y="530" as="sourcePoint" />
            <mxPoint x="595" y="490" as="targetPoint" />
          </mxGeometry>
        </mxCell>
        <mxCell id="kqk-4xn9vtSDWn9mELsq-63" value="&lt;font style=&quot;font-size: 18px&quot;&gt;Attribute&lt;/font&gt;" style="ellipse;whiteSpace=wrap;html=1;" vertex="1" parent="1">
          <mxGeometry x="630" y="220" width="120" height="60" as="geometry" />
        </mxCell>
        <mxCell id="kqk-4xn9vtSDWn9mELsq-64" value="" style="endArrow=none;html=1;rounded=0;fontSize=18;entryX=0;entryY=0.5;entryDx=0;entryDy=0;" edge="1" parent="1" target="kqk-4xn9vtSDWn9mELsq-63">
          <mxGeometry width="50" height="50" relative="1" as="geometry">
            <mxPoint x="470" y="250" as="sourcePoint" />
            <mxPoint x="530" y="300" as="targetPoint" />
          </mxGeometry>
        </mxCell>
        <mxCell id="kqk-4xn9vtSDWn9mELsq-66" value="40" style="text;html=1;align=center;verticalAlign=middle;resizable=0;points=[];autosize=1;strokeColor=none;fillColor=none;fontSize=18;" vertex="1" parent="1">
          <mxGeometry x="485" y="420" width="40" height="30" as="geometry" />
        </mxCell>
        <mxCell id="kqk-4xn9vtSDWn9mELsq-106" value="&lt;font style=&quot;font-size: 18px&quot;&gt;Sections&lt;br&gt;&lt;/font&gt;" style="rounded=0;whiteSpace=wrap;html=1;" vertex="1" parent="1">
          <mxGeometry x="360" y="1050" width="120" height="60" as="geometry" />
        </mxCell>
        <mxCell id="kqk-4xn9vtSDWn9mELsq-107" value="" style="edgeStyle=orthogonalEdgeStyle;rounded=0;orthogonalLoop=1;jettySize=auto;html=1;fontSize=18;" edge="1" parent="1" source="kqk-4xn9vtSDWn9mELsq-108" target="kqk-4xn9vtSDWn9mELsq-137">
          <mxGeometry relative="1" as="geometry" />
        </mxCell>
        <mxCell id="kqk-4xn9vtSDWn9mELsq-108" value="&lt;font style=&quot;font-size: 18px&quot;&gt;Students&lt;/font&gt;" style="rounded=0;whiteSpace=wrap;html=1;" vertex="1" parent="1">
          <mxGeometry x="360" y="1250" width="120" height="60" as="geometry" />
        </mxCell>
        <mxCell id="kqk-4xn9vtSDWn9mELsq-109" value="" style="endArrow=none;html=1;rounded=0;fontSize=18;entryX=0.5;entryY=0;entryDx=0;entryDy=0;exitX=0.5;exitY=0;exitDx=0;exitDy=0;" edge="1" parent="1" source="kqk-4xn9vtSDWn9mELsq-122" target="kqk-4xn9vtSDWn9mELsq-108">
          <mxGeometry width="50" height="50" relative="1" as="geometry">
            <mxPoint x="370" y="1190" as="sourcePoint" />
            <mxPoint x="540" y="930" as="targetPoint" />
          </mxGeometry>
        </mxCell>
        <mxCell id="kqk-4xn9vtSDWn9mELsq-110" value="" style="edgeStyle=orthogonalEdgeStyle;rounded=0;orthogonalLoop=1;jettySize=auto;html=1;fontSize=18;" edge="1" parent="1" source="kqk-4xn9vtSDWn9mELsq-111" target="kqk-4xn9vtSDWn9mELsq-126">
          <mxGeometry relative="1" as="geometry" />
        </mxCell>
        <mxCell id="kqk-4xn9vtSDWn9mELsq-111" value="&lt;font style=&quot;font-size: 18px&quot;&gt;Instructors&lt;/font&gt;" style="rounded=0;whiteSpace=wrap;html=1;" vertex="1" parent="1">
          <mxGeometry x="360" y="700" width="120" height="60" as="geometry" />
        </mxCell>
        <mxCell id="kqk-4xn9vtSDWn9mELsq-112" value="" style="endArrow=classic;html=1;rounded=0;entryX=0.5;entryY=1;entryDx=0;entryDy=0;exitX=0.5;exitY=0;exitDx=0;exitDy=0;" edge="1" parent="1" source="kqk-4xn9vtSDWn9mELsq-122" target="kqk-4xn9vtSDWn9mELsq-106">
          <mxGeometry width="50" height="50" relative="1" as="geometry">
            <mxPoint x="370" y="1190" as="sourcePoint" />
            <mxPoint x="570" y="1050" as="targetPoint" />
          </mxGeometry>
        </mxCell>
        <mxCell id="kqk-4xn9vtSDWn9mELsq-113" value="" style="edgeStyle=orthogonalEdgeStyle;rounded=0;orthogonalLoop=1;jettySize=auto;html=1;fontSize=18;" edge="1" parent="1" source="kqk-4xn9vtSDWn9mELsq-114" target="kqk-4xn9vtSDWn9mELsq-132">
          <mxGeometry relative="1" as="geometry" />
        </mxCell>
        <mxCell id="kqk-4xn9vtSDWn9mELsq-114" value="&lt;font style=&quot;font-size: 18px&quot;&gt;Courses&lt;/font&gt;" style="rounded=0;whiteSpace=wrap;html=1;" vertex="1" parent="1">
          <mxGeometry x="360" y="880" width="120" height="60" as="geometry" />
        </mxCell>
        <mxCell id="kqk-4xn9vtSDWn9mELsq-116" value="Teaches" style="rhombus;whiteSpace=wrap;html=1;fontSize=18;" vertex="1" parent="1">
          <mxGeometry x="360" y="790" width="120" height="60" as="geometry" />
        </mxCell>
        <mxCell id="kqk-4xn9vtSDWn9mELsq-117" value="" style="endArrow=none;html=1;rounded=0;entryX=0.5;entryY=1;entryDx=0;entryDy=0;exitX=0.5;exitY=0;exitDx=0;exitDy=0;" edge="1" parent="1" source="kqk-4xn9vtSDWn9mELsq-116" target="kqk-4xn9vtSDWn9mELsq-111">
          <mxGeometry width="50" height="50" relative="1" as="geometry">
            <mxPoint x="510" y="1110" as="sourcePoint" />
            <mxPoint x="560" y="1060" as="targetPoint" />
          </mxGeometry>
        </mxCell>
        <mxCell id="kqk-4xn9vtSDWn9mELsq-118" value="" style="endArrow=none;html=1;rounded=0;entryX=0.5;entryY=1;entryDx=0;entryDy=0;exitX=0.5;exitY=0;exitDx=0;exitDy=0;" edge="1" parent="1" source="kqk-4xn9vtSDWn9mELsq-114" target="kqk-4xn9vtSDWn9mELsq-116">
          <mxGeometry width="50" height="50" relative="1" as="geometry">
            <mxPoint x="510" y="1110" as="sourcePoint" />
            <mxPoint x="560" y="1060" as="targetPoint" />
          </mxGeometry>
        </mxCell>
        <mxCell id="kqk-4xn9vtSDWn9mELsq-119" value="" style="endArrow=none;html=1;rounded=0;entryX=0.5;entryY=1;entryDx=0;entryDy=0;exitX=0.5;exitY=0;exitDx=0;exitDy=0;startArrow=none;" edge="1" parent="1" source="kqk-4xn9vtSDWn9mELsq-120" target="kqk-4xn9vtSDWn9mELsq-114">
          <mxGeometry width="50" height="50" relative="1" as="geometry">
            <mxPoint x="510" y="1110" as="sourcePoint" />
            <mxPoint x="560" y="1060" as="targetPoint" />
          </mxGeometry>
        </mxCell>
        <mxCell id="kqk-4xn9vtSDWn9mELsq-120" value="Has" style="rhombus;whiteSpace=wrap;html=1;fontSize=18;" vertex="1" parent="1">
          <mxGeometry x="350" y="970" width="140" height="60" as="geometry" />
        </mxCell>
        <mxCell id="kqk-4xn9vtSDWn9mELsq-121" value="" style="endArrow=none;html=1;rounded=0;entryX=0.5;entryY=1;entryDx=0;entryDy=0;exitX=0.5;exitY=0;exitDx=0;exitDy=0;" edge="1" parent="1" source="kqk-4xn9vtSDWn9mELsq-106" target="kqk-4xn9vtSDWn9mELsq-120">
          <mxGeometry width="50" height="50" relative="1" as="geometry">
            <mxPoint x="420" y="1060" as="sourcePoint" />
            <mxPoint x="420" y="940" as="targetPoint" />
          </mxGeometry>
        </mxCell>
        <mxCell id="kqk-4xn9vtSDWn9mELsq-122" value="Enrolls in" style="rhombus;whiteSpace=wrap;html=1;fontSize=18;" vertex="1" parent="1">
          <mxGeometry x="360" y="1150" width="120" height="60" as="geometry" />
        </mxCell>
        <mxCell id="kqk-4xn9vtSDWn9mELsq-125" value="&lt;font style=&quot;font-size: 18px&quot;&gt;Department&lt;/font&gt;" style="ellipse;whiteSpace=wrap;html=1;" vertex="1" parent="1">
          <mxGeometry x="510" y="700" width="120" height="60" as="geometry" />
        </mxCell>
        <mxCell id="kqk-4xn9vtSDWn9mELsq-126" value="&lt;u style=&quot;font-size: 18px&quot;&gt;Name&lt;/u&gt;" style="ellipse;whiteSpace=wrap;html=1;" vertex="1" parent="1">
          <mxGeometry x="200" y="700" width="120" height="60" as="geometry" />
        </mxCell>
        <mxCell id="kqk-4xn9vtSDWn9mELsq-127" value="" style="endArrow=none;html=1;rounded=0;fontSize=18;entryX=0;entryY=0.5;entryDx=0;entryDy=0;exitX=1;exitY=0.5;exitDx=0;exitDy=0;" edge="1" parent="1" source="kqk-4xn9vtSDWn9mELsq-111" target="kqk-4xn9vtSDWn9mELsq-125">
          <mxGeometry width="50" height="50" relative="1" as="geometry">
            <mxPoint x="510" y="1100" as="sourcePoint" />
            <mxPoint x="560" y="1050" as="targetPoint" />
          </mxGeometry>
        </mxCell>
        <mxCell id="kqk-4xn9vtSDWn9mELsq-128" value="&lt;font style=&quot;font-size: 18px&quot;&gt;Department&lt;/font&gt;" style="ellipse;whiteSpace=wrap;html=1;" vertex="1" parent="1">
          <mxGeometry x="530" y="840" width="120" height="60" as="geometry" />
        </mxCell>
        <mxCell id="kqk-4xn9vtSDWn9mELsq-129" value="&lt;font style=&quot;font-size: 18px&quot;&gt;Credits&lt;/font&gt;" style="ellipse;whiteSpace=wrap;html=1;" vertex="1" parent="1">
          <mxGeometry x="530" y="920" width="120" height="60" as="geometry" />
        </mxCell>
        <mxCell id="kqk-4xn9vtSDWn9mELsq-130" value="" style="endArrow=classic;html=1;rounded=0;fontSize=18;entryX=0;entryY=0.5;entryDx=0;entryDy=0;exitX=1;exitY=0.5;exitDx=0;exitDy=0;" edge="1" parent="1" source="kqk-4xn9vtSDWn9mELsq-114" target="kqk-4xn9vtSDWn9mELsq-128">
          <mxGeometry width="50" height="50" relative="1" as="geometry">
            <mxPoint x="510" y="1100" as="sourcePoint" />
            <mxPoint x="560" y="1050" as="targetPoint" />
          </mxGeometry>
        </mxCell>
        <mxCell id="kqk-4xn9vtSDWn9mELsq-131" value="" style="endArrow=none;html=1;rounded=0;fontSize=18;exitX=1;exitY=0.5;exitDx=0;exitDy=0;entryX=0;entryY=0.5;entryDx=0;entryDy=0;" edge="1" parent="1" source="kqk-4xn9vtSDWn9mELsq-114" target="kqk-4xn9vtSDWn9mELsq-129">
          <mxGeometry width="50" height="50" relative="1" as="geometry">
            <mxPoint x="510" y="1100" as="sourcePoint" />
            <mxPoint x="560" y="1050" as="targetPoint" />
          </mxGeometry>
        </mxCell>
        <mxCell id="kqk-4xn9vtSDWn9mELsq-132" value="&lt;u style=&quot;font-size: 18px&quot;&gt;Course Title&lt;/u&gt;" style="ellipse;whiteSpace=wrap;html=1;" vertex="1" parent="1">
          <mxGeometry x="200" y="880" width="120" height="60" as="geometry" />
        </mxCell>
        <mxCell id="kqk-4xn9vtSDWn9mELsq-133" value="&lt;u style=&quot;font-size: 18px&quot;&gt;SectionID&lt;/u&gt;" style="ellipse;whiteSpace=wrap;html=1;" vertex="1" parent="1">
          <mxGeometry x="200" y="1050" width="120" height="60" as="geometry" />
        </mxCell>
        <mxCell id="kqk-4xn9vtSDWn9mELsq-134" value="&lt;span style=&quot;font-size: 18px&quot;&gt;Schedule&lt;/span&gt;" style="ellipse;whiteSpace=wrap;html=1;" vertex="1" parent="1">
          <mxGeometry x="520" y="1050" width="120" height="60" as="geometry" />
        </mxCell>
        <mxCell id="kqk-4xn9vtSDWn9mELsq-135" value="" style="endArrow=none;html=1;rounded=0;fontSize=18;entryX=1;entryY=0.5;entryDx=0;entryDy=0;" edge="1" parent="1" target="kqk-4xn9vtSDWn9mELsq-106">
          <mxGeometry width="50" height="50" relative="1" as="geometry">
            <mxPoint x="520" y="1080" as="sourcePoint" />
            <mxPoint x="460" y="940" as="targetPoint" />
          </mxGeometry>
        </mxCell>
        <mxCell id="kqk-4xn9vtSDWn9mELsq-136" value="" style="endArrow=classic;html=1;rounded=0;fontSize=18;entryX=1;entryY=0.5;entryDx=0;entryDy=0;exitX=0;exitY=0.5;exitDx=0;exitDy=0;" edge="1" parent="1" source="kqk-4xn9vtSDWn9mELsq-106" target="kqk-4xn9vtSDWn9mELsq-133">
          <mxGeometry width="50" height="50" relative="1" as="geometry">
            <mxPoint x="410" y="990" as="sourcePoint" />
            <mxPoint x="460" y="940" as="targetPoint" />
          </mxGeometry>
        </mxCell>
        <mxCell id="kqk-4xn9vtSDWn9mELsq-137" value="&lt;u style=&quot;font-size: 18px&quot;&gt;Name&lt;/u&gt;" style="ellipse;whiteSpace=wrap;html=1;" vertex="1" parent="1">
          <mxGeometry x="360" y="1360" width="120" height="60" as="geometry" />
        </mxCell>
        <mxCell id="kqk-4xn9vtSDWn9mELsq-138" value="&lt;font style=&quot;font-size: 18px&quot;&gt;Major&lt;/font&gt;" style="ellipse;whiteSpace=wrap;html=1;" vertex="1" parent="1">
          <mxGeometry x="240" y="1340" width="120" height="60" as="geometry" />
        </mxCell>
        <mxCell id="kqk-4xn9vtSDWn9mELsq-139" value="" style="endArrow=none;html=1;rounded=0;fontSize=18;entryX=0.5;entryY=1;entryDx=0;entryDy=0;exitX=1;exitY=0;exitDx=0;exitDy=0;" edge="1" parent="1" source="kqk-4xn9vtSDWn9mELsq-138" target="kqk-4xn9vtSDWn9mELsq-108">
          <mxGeometry width="50" height="50" relative="1" as="geometry">
            <mxPoint x="670" y="1340" as="sourcePoint" />
            <mxPoint x="720" y="1290" as="targetPoint" />
          </mxGeometry>
        </mxCell>
        <mxCell id="kqk-4xn9vtSDWn9mELsq-140" value="&lt;font style=&quot;font-size: 18px&quot;&gt;GPA&lt;/font&gt;" style="ellipse;whiteSpace=wrap;html=1;" vertex="1" parent="1">
          <mxGeometry x="480" y="1340" width="120" height="60" as="geometry" />
        </mxCell>
        <mxCell id="kqk-4xn9vtSDWn9mELsq-141" value="" style="endArrow=none;html=1;rounded=0;fontSize=18;entryX=0.5;entryY=1;entryDx=0;entryDy=0;exitX=0;exitY=0;exitDx=0;exitDy=0;" edge="1" parent="1" source="kqk-4xn9vtSDWn9mELsq-140" target="kqk-4xn9vtSDWn9mELsq-108">
          <mxGeometry width="50" height="50" relative="1" as="geometry">
            <mxPoint x="865" y="1440" as="sourcePoint" />
            <mxPoint x="865" y="1400" as="targetPoint" />
          </mxGeometry>
        </mxCell>
        <mxCell id="kqk-4xn9vtSDWn9mELsq-142" value="&lt;font style=&quot;font-size: 18px&quot;&gt;Attribute&lt;/font&gt;" style="ellipse;whiteSpace=wrap;html=1;" vertex="1" parent="1">
          <mxGeometry x="640" y="880" width="120" height="60" as="geometry" />
        </mxCell>
        <mxCell id="kqk-4xn9vtSDWn9mELsq-143" value="" style="endArrow=none;html=1;rounded=0;fontSize=18;entryX=0;entryY=0.5;entryDx=0;entryDy=0;" edge="1" parent="1" target="kqk-4xn9vtSDWn9mELsq-142">
          <mxGeometry width="50" height="50" relative="1" as="geometry">
            <mxPoint x="480" y="910" as="sourcePoint" />
            <mxPoint x="540" y="960" as="targetPoint" />
          </mxGeometry>
        </mxCell>
        <mxCell id="kqk-4xn9vtSDWn9mELsq-144" value="40" style="text;html=1;align=center;verticalAlign=middle;resizable=0;points=[];autosize=1;strokeColor=none;fillColor=none;fontSize=18;" vertex="1" parent="1">
          <mxGeometry x="755" y="1330" width="40" height="30" as="geometry" />
        </mxCell>
        <mxCell id="kqk-4xn9vtSDWn9mELsq-145" value="40" style="text;html=1;align=center;verticalAlign=middle;resizable=0;points=[];autosize=1;strokeColor=none;fillColor=none;fontSize=18;" vertex="1" parent="1">
          <mxGeometry x="320" y="1250" width="40" height="30" as="geometry" />
        </mxCell>
      </root>
    </mxGraphModel>
  </diagram>
</mxfile>
